<mxfile host="65bd71144e">
    <diagram id="NbEholBMBSBcS8SgYZPQ" name="GuessingGame-PC">
        <mxGraphModel dx="458" dy="949" grid="1" gridSize="10" guides="1" tooltips="1" connect="1" arrows="1" fold="1" page="1" pageScale="1" pageWidth="827" pageHeight="1169" math="0" shadow="0">
            <root>
                <mxCell id="0"/>
                <mxCell id="1" parent="0"/>
                <mxCell id="25" style="edgeStyle=none;html=1;exitX=0.5;exitY=1;exitDx=0;exitDy=0;entryX=0.5;entryY=0;entryDx=0;entryDy=0;" edge="1" parent="1" source="27" target="29">
                    <mxGeometry relative="1" as="geometry">
                        <Array as="points">
                            <mxPoint x="380" y="190"/>
                        </Array>
                    </mxGeometry>
                </mxCell>
                <mxCell id="26" style="edgeStyle=none;html=1;exitX=0.5;exitY=1;exitDx=0;exitDy=0;" edge="1" parent="1" source="27" target="31">
                    <mxGeometry relative="1" as="geometry">
                        <Array as="points">
                            <mxPoint x="380" y="190"/>
                            <mxPoint x="430" y="210"/>
                        </Array>
                    </mxGeometry>
                </mxCell>
                <mxCell id="27" value="Start" style="ellipse;whiteSpace=wrap;html=1;" vertex="1" parent="1">
                    <mxGeometry x="320" y="80" width="120" height="80" as="geometry"/>
                </mxCell>
                <mxCell id="28" style="edgeStyle=none;html=1;entryX=0.5;entryY=0;entryDx=0;entryDy=0;" edge="1" parent="1" source="29" target="37">
                    <mxGeometry relative="1" as="geometry">
                        <mxPoint x="360" y="400" as="targetPoint"/>
                        <Array as="points"/>
                    </mxGeometry>
                </mxCell>
                <mxCell id="29" value="Generate N" style="whiteSpace=wrap;html=1;aspect=fixed;" vertex="1" parent="1">
                    <mxGeometry x="345" y="220" width="70" height="70" as="geometry"/>
                </mxCell>
                <mxCell id="30" style="edgeStyle=none;html=1;exitX=0;exitY=1;exitDx=0;exitDy=0;entryX=0.5;entryY=0;entryDx=0;entryDy=0;" edge="1" parent="1" source="31" target="37">
                    <mxGeometry relative="1" as="geometry">
                        <mxPoint x="400" y="400" as="targetPoint"/>
                        <Array as="points">
                            <mxPoint x="440" y="320"/>
                            <mxPoint x="380" y="320"/>
                        </Array>
                    </mxGeometry>
                </mxCell>
                <mxCell id="31" value="Input x" style="shape=parallelogram;perimeter=parallelogramPerimeter;whiteSpace=wrap;html=1;fixedSize=1;size=16;" vertex="1" parent="1">
                    <mxGeometry x="470" y="220" width="120" height="60" as="geometry"/>
                </mxCell>
                <mxCell id="32" value="" style="edgeStyle=none;html=1;" edge="1" parent="1" target="39">
                    <mxGeometry relative="1" as="geometry">
                        <mxPoint x="430" y="450" as="sourcePoint"/>
                        <Array as="points">
                            <mxPoint x="430" y="510"/>
                        </Array>
                    </mxGeometry>
                </mxCell>
                <mxCell id="33" value="&amp;lt;" style="edgeLabel;html=1;align=center;verticalAlign=middle;resizable=0;points=[];" vertex="1" connectable="0" parent="32">
                    <mxGeometry x="0.0099" relative="1" as="geometry">
                        <mxPoint x="10" y="-5" as="offset"/>
                    </mxGeometry>
                </mxCell>
                <mxCell id="34" value="" style="edgeStyle=none;html=1;" edge="1" parent="1" source="37" target="41">
                    <mxGeometry relative="1" as="geometry"/>
                </mxCell>
                <mxCell id="35" value="&amp;gt;" style="edgeLabel;html=1;align=center;verticalAlign=middle;resizable=0;points=[];" vertex="1" connectable="0" parent="34">
                    <mxGeometry x="-0.3915" y="1" relative="1" as="geometry">
                        <mxPoint x="-5" y="-9" as="offset"/>
                    </mxGeometry>
                </mxCell>
                <object label="" id="36">
                    <mxCell style="edgeStyle=none;html=1;entryX=0.5;entryY=0;entryDx=0;entryDy=0;" edge="1" parent="1" source="37" target="42">
                        <mxGeometry relative="1" as="geometry">
                            <Array as="points">
                                <mxPoint x="380" y="550"/>
                            </Array>
                        </mxGeometry>
                    </mxCell>
                </object>
                <mxCell id="37" value="Compare" style="rhombus;whiteSpace=wrap;html=1;" vertex="1" parent="1">
                    <mxGeometry x="330" y="390" width="100" height="120" as="geometry"/>
                </mxCell>
                <mxCell id="38" style="edgeStyle=none;html=1;entryX=0.593;entryY=1.084;entryDx=0;entryDy=0;entryPerimeter=0;exitX=1;exitY=0.5;exitDx=0;exitDy=0;" edge="1" parent="1" source="39" target="31">
                    <mxGeometry relative="1" as="geometry">
                        <mxPoint x="610" y="510" as="targetPoint"/>
                        <Array as="points">
                            <mxPoint x="540" y="510"/>
                        </Array>
                    </mxGeometry>
                </mxCell>
                <mxCell id="39" value="too low" style="whiteSpace=wrap;html=1;" vertex="1" parent="1">
                    <mxGeometry x="460" y="490" width="60" height="40" as="geometry"/>
                </mxCell>
                <mxCell id="40" style="edgeStyle=none;html=1;entryX=0.157;entryY=1.056;entryDx=0;entryDy=0;entryPerimeter=0;" edge="1" parent="1" source="41" target="31">
                    <mxGeometry relative="1" as="geometry"/>
                </mxCell>
                <mxCell id="41" value="too high" style="whiteSpace=wrap;html=1;" vertex="1" parent="1">
                    <mxGeometry x="460" y="430" width="60" height="40" as="geometry"/>
                </mxCell>
                <mxCell id="42" value="CORRECT" style="shape=hexagon;perimeter=hexagonPerimeter2;whiteSpace=wrap;html=1;fixedSize=1;" vertex="1" parent="1">
                    <mxGeometry x="320" y="570" width="120" height="80" as="geometry"/>
                </mxCell>
                <mxCell id="43" value="=" style="text;html=1;align=center;verticalAlign=middle;resizable=0;points=[];autosize=1;strokeColor=none;fillColor=none;" vertex="1" parent="1">
                    <mxGeometry x="380" y="520" width="20" height="20" as="geometry"/>
                </mxCell>
            </root>
        </mxGraphModel>
    </diagram>
    <diagram id="X5C8b3v_8eqB3MfvyBJ-" name="Page-2">
        <mxGraphModel dx="458" dy="949" grid="1" gridSize="10" guides="1" tooltips="1" connect="1" arrows="1" fold="1" page="1" pageScale="1" pageWidth="827" pageHeight="1169" math="0" shadow="0">
            <root>
                <mxCell id="kD95RJ43VXBQNL_hrRto-0"/>
                <mxCell id="kD95RJ43VXBQNL_hrRto-1" parent="kD95RJ43VXBQNL_hrRto-0"/>
                <mxCell id="kD95RJ43VXBQNL_hrRto-29" style="edgeStyle=none;html=1;entryX=0.5;entryY=0;entryDx=0;entryDy=0;" edge="1" parent="kD95RJ43VXBQNL_hrRto-1" source="kD95RJ43VXBQNL_hrRto-4" target="kD95RJ43VXBQNL_hrRto-28">
                    <mxGeometry relative="1" as="geometry"/>
                </mxCell>
                <mxCell id="kD95RJ43VXBQNL_hrRto-4" value="Start" style="ellipse;whiteSpace=wrap;html=1;" vertex="1" parent="kD95RJ43VXBQNL_hrRto-1">
                    <mxGeometry x="95" y="90" width="90" height="90" as="geometry"/>
                </mxCell>
                <mxCell id="kD95RJ43VXBQNL_hrRto-31" style="edgeStyle=none;html=1;entryX=-0.059;entryY=0.382;entryDx=0;entryDy=0;entryPerimeter=0;exitX=0.841;exitY=1.037;exitDx=0;exitDy=0;exitPerimeter=0;" edge="1" parent="kD95RJ43VXBQNL_hrRto-1" source="kD95RJ43VXBQNL_hrRto-28" target="kD95RJ43VXBQNL_hrRto-30">
                    <mxGeometry relative="1" as="geometry">
                        <Array as="points">
                            <mxPoint x="180" y="361"/>
                        </Array>
                    </mxGeometry>
                </mxCell>
                <mxCell id="kD95RJ43VXBQNL_hrRto-28" value="Enter x to guess N" style="rounded=1;whiteSpace=wrap;html=1;" vertex="1" parent="kD95RJ43VXBQNL_hrRto-1">
                    <mxGeometry x="80" y="210" width="120" height="60" as="geometry"/>
                </mxCell>
                <mxCell id="kD95RJ43VXBQNL_hrRto-38" style="edgeStyle=none;html=1;entryX=1;entryY=0.5;entryDx=0;entryDy=0;exitX=1;exitY=0.5;exitDx=0;exitDy=0;exitPerimeter=0;" edge="1" parent="kD95RJ43VXBQNL_hrRto-1" source="kD95RJ43VXBQNL_hrRto-30" target="kD95RJ43VXBQNL_hrRto-28">
                    <mxGeometry relative="1" as="geometry">
                        <Array as="points">
                            <mxPoint x="360" y="370"/>
                            <mxPoint x="360" y="240"/>
                        </Array>
                    </mxGeometry>
                </mxCell>
                <mxCell id="kD95RJ43VXBQNL_hrRto-30" value="Wrong" style="shape=or;whiteSpace=wrap;html=1;rotation=0;" vertex="1" parent="kD95RJ43VXBQNL_hrRto-1">
                    <mxGeometry x="270" y="330" width="60" height="80" as="geometry"/>
                </mxCell>
                <mxCell id="kD95RJ43VXBQNL_hrRto-32" value="&amp;gt; and &amp;lt;" style="text;html=1;align=center;verticalAlign=middle;resizable=0;points=[];autosize=1;strokeColor=none;fillColor=none;" vertex="1" parent="kD95RJ43VXBQNL_hrRto-1">
                    <mxGeometry x="185" y="340" width="60" height="20" as="geometry"/>
                </mxCell>
                <mxCell id="kD95RJ43VXBQNL_hrRto-39" value="&lt;font style=&quot;font-size: 17px&quot;&gt;try again&lt;/font&gt;" style="text;html=1;align=center;verticalAlign=middle;resizable=0;points=[];autosize=1;strokeColor=none;fillColor=none;" vertex="1" parent="kD95RJ43VXBQNL_hrRto-1">
                    <mxGeometry x="330" y="290" width="80" height="20" as="geometry"/>
                </mxCell>
                <mxCell id="kD95RJ43VXBQNL_hrRto-44" style="edgeStyle=none;html=1;entryX=0.183;entryY=1.009;entryDx=0;entryDy=0;entryPerimeter=0;fontSize=17;" edge="1" parent="kD95RJ43VXBQNL_hrRto-1" source="kD95RJ43VXBQNL_hrRto-43" target="kD95RJ43VXBQNL_hrRto-28">
                    <mxGeometry relative="1" as="geometry"/>
                </mxCell>
                <mxCell id="kD95RJ43VXBQNL_hrRto-43" value="Correct" style="shape=trapezoid;perimeter=trapezoidPerimeter;whiteSpace=wrap;html=1;fixedSize=1;fontSize=17;" vertex="1" parent="kD95RJ43VXBQNL_hrRto-1">
                    <mxGeometry x="50" y="370" width="100" height="40" as="geometry"/>
                </mxCell>
            </root>
        </mxGraphModel>
    </diagram>
</mxfile>